<svg xmlns="http://www.w3.org/2000/svg" width="1753" height="2480">
  <path id="Layer_2" fill="#900" d="M0 0h1753v2480H0z"/>
  <g id="Layer_1">
    <g id="girl">
      <path d="M1661.5 1499.5v273c0 18.6-2.2 16-16 15.4l-125-6-47.8-2-111-5-151.6-8-59-3-113-6-48-2-113-5-148-8-62-3-113-6-47-2-113-5-148-7-62-3c-23-1-47-2-70-4-12-1-13-2-13-15v-440c0-19 1-20 20-21h3l144-3c63-1 126-3 189-4l80-2 184-4 80-2 183-4 82-2 180-4 83-2 181-4c28-1 56-1 84-2 18-1 35-1 52-2h7c10 0 11 2 12 11 1 4 0 7 0 11 1 90 1 179 1 269zM1372 1692h-2c3-2 5.6-4.6 8.7-6.2 11.8-6 24-11.3 35.8-17 10.2-5 13-10 12-21-.7-5.5.5-12.8-5.3-15.2-6-2.4-9.6 4.3-14 7.5l-11 8 39.8-44 1.2-1c10.8-18 21.4-36 27.8-57 .8-2 1-6 0-8-4.3-8-14-10-23-6l-14-7c3-2 5.5-2 8-2 12.6-1 25.2-2 37.6-5 10.7-2 14-9 9-19-4-7-11.4-11-21-9-3.3 1-6.6 2-9.8 2-9.2-1-16 3-21.7 10 1-18-13-21-27-23 4-1 7-1 10-1 5 0 9 1 14 1 2 3 4 6 9 3-3-1-5-2-8-3-4-5-7-11-12-16-1-1-4-2-6-2-14 0-18-9-11-20 2 1 4 2 5 2 3 1 5-1 3-4l-2-12v1c0-2-2-3-2-5 2-14-6-25-10-37l-5-13c1-3 2-6 2-8-2-16-5-31-9-47-1-5-5-10-7-15-5-10-18-14-22-26l-3 5c-3 7-5 8-12 6-2 0-3-1-5-2-6-4-13-3-20 0-10 6-20 7-32 5l-4 23c-1 4-1 8 3 10 5 2 8 1 12-2 3-3 6-7 9-10 17-15 38-16 57-8l5 3c3 3 2 6-1 7-4 1-7 1-11 0-10-2-20 4-21 14-1 6-4 8-9 9 3-8 7-15 9-23 1-3 0-6-2-9 0 0-5 0-7 1-3 3-6 7-9 11l-7 3c2 3 3 4 4 5 2 2 4 2 6 3 0 9 0 9 7 10 3 3 5 5 8 7s7 4 6 8c-7 3-11-2-17-6l-4 9c-7 4-13 7-19 10-6 4-11 8-15 13-1 1-1 5 0 7 2 3 5 4 9 3 10 9 19 19 32 22 2 1 4 3 6 5l-4 6c-3-2-5-5-8-7-2-1-4-2-6-2-12 0-23-2-33-7-8-4-17-8-26-11s-18-3-26 2c-9 6-11 17-4 24 2 2 6 3 8 3 2-1 4-4 5-7 1-2 0-5-1-9 10-1 16 3 22 9 4 4 8 6 13 5h9l12 2c0 6 3 7 8 6 7-2 12-1 16 5 3 4 9 2 10-3 1-2 0-4 0-7 3 3 5 6 8 8 6 4 11 9 14 16s8 8 16 4c6-2 11-9 17-1 11-3 12 4 13 12 0 2 2 4 4 6s3 4 5 7c4 7 3 11-6 13s-18 3-27 2c-4 0-9-3-14-4-1 0 0-3-1-4-3-9-5-9-11-3-5 5-10 6-17 4-4-1-9-3-13-4.2-13-4-14-3.3-23 7-2 3-4 7-11 6 7-8 12-16 21-20-1-4-1-8.2-3-12-1-3.3-4-7.2-7-10-3-2-5 0-5 4l-8-4c-5-2-9-1-12 6 5 2 8 4 12 5 4 1.7 9 2 13 8-5 0-9-.3-12-1-9-2-18-2-27 2-3 2-8 2-11 0-6-3-11-2-17 0-1 1-3 1-5 1v-10c-11 2-13 5-11 14 3 8 9 12 16 14 5 2 10 3 13 5 10 7 20 10 32 12 5 1 10 3 14 4-5 3-9 7.5-15 2-2-2-8-3-11-2-9 2-16-1-24-4-3-1-7-3-11-5-6-2-8-1-10 6v2c-2 19 1 37-1 56 0 2 3 4 4 6.4 2 3 4 6 5 10l9 33c-11-1.6-16 2-19 12.4-1 4-2 8-4 10-3 5-6 9-2 14 1 1 0 3 0 4-4 5-3 11.7-4 17 0 4.8 2 8 5 11 8 6 15 13 22 19 1 .8 2 0 3 0 1-1 2-3 4-5l5 5c-5 3-6 7-3 12l-7 4c-7 0-14 1-22 1-6-4-12-10-21-5-6-10-16-10-26.3-10 1.5-6-1.5-8-6.6-10-11-3-21-7-31-10-3 0-6-1-8 0-3 1-6 3-6 4 0 11-7 17-15 22-2 1-4 5-3 6 1 2 3 4 6 5 2 1 4 1 7 1 6 0 14 0 20 2 29 5 58 11 87 15 35 5 69 11 104.3 15 14 1.7 27 6 41 7 17 2 34 7 51 10 12.5 3 21.4-4 21-16 0-7 1.4-13 3.6-19 2-6 5-12 3-19-5-2-10-5-16-6-5-1-11 1-18 2l-4.4-8-4.5 1-4 .3zm72-224c1 1.6 1.8 3.3 2.7 5l1.7-1.6c-1.5-1-3-2.2-4.4-3.4zm-36.5-96.3c-4.4 4-3.3 8.2-2.7 12.4.8 7 2.5 13 2.3 19 0 5 1 7 5 7 5 1 7-1 7-6-1-9-4-18-6-27 0-1-2-2-4-4zm60.5 60l.6-2.4c-1.8-1.4-3.6-3.8-5.6-4-2 0-4 2-6.2 3.2 1.5 1.5 2.7 3.7 4.5 4.2 2 .5 4.4-.6 6.7-1zm-420.2 306.8c-4.4 4.6-6 9.2-5.4 15 6.4-2.6 6.5-3 5.4-15zm298.3-283.2l4-3.4-1-3-13-4v1c3 2 7 5 11 9zm101-21.3c-1-1-2-2.4-3-2.3-1 0-2 1.3-3 2 1 1 2 2.3 3 2.8 1 0 2-1.3 3-2.5zm-47-105.4c0 1-1 2-1 2.5 0 1 1 2 2 2s2-1 2-2l-1-2zm-331 376.6v-1.6c0-.3-1 0-1 0l1 2.2 2-.6zm402-172.8l-1-1.4-1 2c1 .3 1 .8 2 .7 1-.2 1-1 1-1.3zm-270 46.6v-.6.6zm238-152.7l-1 .5 1 .3zm-169-8.7v.5l1 1z"/>
      <path d="M1302 1532c3.8-4.6 7.7-9 11.5-13.7.4 0 .7.3 1 .4l-3.6 10c1 1 3 3 4 3.2 13 2 26 7 40 11 4 1 8 1 10-4 1-5 7-10 1-16-4-3-6-7-9-10l1-2c4 3 8 6 12 10s5 12 1 19c-3 6-9 8-15 6-13-2-25-5-37-8-4-1-8-1-11-1s-6 0-8 1c-17 1-23-5-22-22 0-4-1-8-2-12-1-8 1-12 9-14l11-3c-1 8-12 7-12 16l6 2c-4 6-12 11-6 19 3 5 8 5 13 4v-1zm-12 58c-5.7 0-11-5.3-17.3-1.4-1 5.3 2.8 7.6 6.3 9 10.2 3.8 20.5 7.5 31 10.4 8.4 2.3 17.2 2.8 25.6 4.7 11.3 2.6 18.7-4.6 27.7-9.4l-4.4-7c6-3.2 9 3.8 14 5.4-3 2.2-5 4.8-8 6.4-15 8-31 10-48 6-9-2-19-3-28-4-13-1-22-8-29-17-2-2-1-5-2-8v1h-1l1-5c10 3 20 5 28 11zm54-14c-1-1.7-2.5-3.2-3-5-.6-2.5-1.5-6-.3-7.4 1.7-1.7 5.2-2.7 7.8-2.4 9.4 1 13.3 8.8 9.8 19.7-1-4-1.3-8-3-10-1.4-2-4.2-5-6.7-5-3.7 0-4 3-4.5 6v3zm2-90c-4.3-.4-8.5-1-12.8-1.2-8.2-.4-14.8 2-18.6 10-1.2 2.8-4.2 4.7-7.4 6 1.5-3.2 3.6-6.2 4.4-9.5 1.7-6.7 6-9 12.3-9 7 0 15-.8 22 3.7z"/>
      <path d="M1290 1590l20.7 5.5c-9.6 2-12.4 1.2-20.7-5.5zm35 6.6h22.7v1h-22.4c0-.3-.2-.6-.4-1zm45 95.4h2c1.2 0 2.5 0 3.7.2l-8.3 8.8c-1-4.8.3-7 2.6-9zm-70-138c2.8 1.6 5.5 3.3 3 8l-3-8zm46-68l7 4.3-1.2 1.6-5.8-6zm26.7-152l-.3-.4h.6zm-48.7 28l3.6 1.4-.5 1c-1-1-2-1.6-3-2.4zm-30 12l-4 1.8c0-.3 0-.7-.2-1l4.2-.8zm50 202c.6.7 1 1.4 1.7 2 0 .2-.2.3-.4.4l-1.3-2.4zm104-10c0 1-.2 1.7-.3 2.6h-.5c.2-1 .5-1.8.8-2.6zm-88-72l1 2.5c-.2 0-.4 0-.6.2 0-1-.2-1.8-.4-2.7zm74 36h8-8zm-4-32c.3.4.6.7.4.6 0 0 0-.2-.4-.6zm-40-76l-.6.5c-.2 0 .2-.2.6-.5zm-116 20l1.3.5-1.3-.5zm174 124l.4-.6c.2 0 0 .2-.4.6zm-148-188zm84-10zm-168 248zm-2-14zm140-64l-4-2 4 2zm36-116l.4-.2-.4.2zm-178 284zm-42-4zm-58-8zm0 0zm110-4zm170-38zm0 0l2-2-2 2zm4-4l-2 2 2-2zm-180-32zm84-238zm-6-4zm30-12zm-24 192zm54-16zm-4-2zm84-6zm-90-12zm2-2l-2 2 2-2zm0 0zm14-22zm44-60zm-8 2zm-114-54z"/>
    </g>
    <g id="team">
      <g id="partner">
        <path d="M880 2387.5H111c-10.7-.3-12-1.7-12.5-12v-596c0-16.5 1-17.6 17.7-16.8l133.8 6 129.8 6 133.8 6 130.8 6 132.8 6 131.8 6 131.8 6 131.8 6 132.8 6 128.8 6 135.8 6 79 3.7c11 .5 12.5 1.8 12.7 13v522c0 3.6 0 7.2-.2 11-.6 6.7-2.3 8.5-9.4 9-4 .2-8 0-13 0H880zM338 1804zm-138 558l-2 2-11.4 5c-1 12 0 13 10.4 13.3h4c11-.4 14-2.6 17.5-12.8 1-3.3 2-6.7 3.5-11 3.5 6.5 3.5 12 2 17.6 10.3 8 17.2 7 23-5 1-2 1.6-4 2.3-6l2.2-6c5.4 3 4.2 8 4.8 12 1.3 8 5 12 13.2 12 9.3 1 14.8-3 19-13 1.7-4 3-8 5-14l4.6 7-2 4 2 1 1-4 3 11c1 4 3 7 7 8 5 0 6-3 7-7l3-9c1-2 3-5 5-8 3 3 4 5 5 7l-1 2 1-1v19l14-3c4-6 3-15 11-23 1 2 3 4 3 6l2 19 7 1c16 3 21 0 25-16 1-3 1-7 7-9l5 23c11 2 15 2 17-3 5-11 9-23 6-37-6 0-11-1-17-1H300c-5 0-9.7 0-14 1-6.7 2-11 0-13.4-6-9 2-9 2-14-6 3 1 8 3 9 2 2-2 2-6 3-10v-1c-5-13-12-26-25-32-13.6-7-28-12-42.7-16-16-4-33-8-46-19-3-2-6-3-9-4-5-1-10-2-15-2-7 1-13 3-19 5-5 1-7 5-7 9-1 11-1 21-1 32 0 4 3 6 7 6l9-1c7-1 14-1 20 3-1 1-1 1 0 0 8 1 16 3 23 8-3 3-6 4-10 5-12 4-15 14-8 27v-9c5 4 9 4 14-1 1-2 4-2 6-3 4-1 7-1 11-2 12-2 20 2 25 14 1 4 2 8 7 10-1-3-1-6-1-8 0-6-1-13 1-20 2-9 13-12 20-6 1 1 2 3 4 4-4 4-3 9-3 14 1 7 1 15-4 22l-7-11-17 19c-2 1-3 3-4 4zm192-512l-4-4c-1-3.2.5-7.3-3.8-10-4 5.8.8 7.6 3.8 10l4 4zm-26-62l3.6-2-1-1.3c-1 1-2 2.2-2.7 3.3-1 .3-1 .7-2 1l1-1zm-204 220l-4 4c-11 9.6-13.6 15.5-10.7 24.5 2-5.4 4.4-11 6.6-16.6-1 6 3 9 9 10l10 1c-8 1-11 7-12 14-1 0-2 1-2 2l-8 6c-1-2-2-3-3-4-2-2-5-2-6 0-2 2 0 4 3 5l3-1c-3 3-6 6-8 10s-4 10-5 14c-4 11-11 21-4 33v4s1 0 1-1l-2-3c9-6 15-13 15-25s7-17 18-19c-2-3-4-5-4-7-1-3-1-6 0-9 2-4 5-6 9-3l1 3v-1l-2-3c5-6 8-13 2-20 1-5 2-11 9-11l14-3c6-2 12-6 21-5l-11 6c8 5 14 4 18-4 2-5 4-10 7-15 4-8 8-14 2-23-4-5-1-9 5-10 3 0 5 0 7 1 9 3 17 1 25-2-3 2-5 5-8 6-11 5-15 15-19 25 0 1 1 3 2 5 1 0 4-1 4-2 3-4 5-8 7-11 4-6 6-11 14-11 4 0 6-4 5-7s-3-5-5-7c5-8 4-16 2-24-2-7-2-13 3-18 2-3 4-7 4-10-1-9 2-17 5-25 3-10 3-21 0-31-1-2-5-5-7-5-3 0-6 3-7 5-2 3-2 7-2 11-2 13-2 27-9 39 0 0 0 1 1 1l5-4-2 12c-6 3-13 5-18 8-6 3-12 7-18 11-10-2-10-11-12-18-4-1-8-3-11 2 2 2 4 4 5 6 0 2-2 5-2 7 0 1 1 2 2 3l2 8-2 8-26 9-1-1 1 1c-5 5-6 11-5 18 0 6 2 9 8 10h10l8 1v2.6l-7 3c-5 0-10 0-15 1-5 0-11 0-16 4-3 1-5 3-8 4zm384 370.2l.6.2-.4-.6-1.4-2.6-1 .7c.7 0 1.4 1 2 2zm-278.3-548.5c-2 1.4-3.8 3-5.7 4.3-2-4-3.7-8-5.8-12.3-8 4.8-4 13-6.8 20 6.6-.3 10.4-2.7 12.6-7.7l6.3-3.8 1.7-6.2c15 1.4 22-7 23-19.3l9-4.6c3.3-2 7-3 9.8-6 3.8-3 2.8-6-1.6-8l1.4-3c-5-1-6 3-8.5 4-5 5-11 8-18 3l9-5-1-2-7 7h-12c2-4 3-8 0-12 0-1-2-1-3-1s-2 2-2 3c-1 5 0 9 6 11-11 12-12 24-2 34l-2 6zM388 1806l1.2 1.2-1.2-1.2c-1.8-4.2-4.3-5.5-8-2l-6.3 7.7c-2.4 1.4-5.5 2.2-5.2 6.5 4.5 0 4.8-3.2 5.7-5.8 4.5-1 4.7-5 5.7-8.4l8 2zm-234 158c-2.3 5.4-2.3 5.4 2 8.8 2.4-3.7 0-6.2-2-8.8 3-1.8 7.4-1.6 9.4-6.5-5.6-.2-7.6 3-9.4 6.5zm376 78c3.7 3 7.6 5 12.8 3.8-5.2-7.5-6.2-7.8-12.8-3.8-1.8 0-3.6.2-5.5.4l.8 2.2c1.6-1 3.2-1.7 4.7-2.6zm-150-220c2.2-.6 4.8-.7 6.5-2 1.2-.8 1.6-3.2 1.6-5 0-.7-2-2.2-2-2-1 .2-3 1.2-4 2.4-1 2-1 4.4-1 6.6 0 0-1 0-2 .4l-3 3 2 1.6c1-1 3-2 3-3 1-.5 1-1.4 1-2zm-154 72h-8l-1 2.5 6.4 6.4 2.2-1 .4-8c1.7-2 3.8-4 1.5-8l-1.5 7zm312 166l-5.6-9.6c-2 5.8-4 9.3 0 14.4l5.6-4.8c2.2-2 5-3.5 3.8-7.8-4 1.8-3.4 5-3.8 7.8zm88 188l4.2-6c-4.6-1-8.5-3.7-10 1.6-1 3.8 2.6 4.5 5.8 4.4 2.8 11.2 4.6 13.2 13.3 14.4-3.2-6.5-4.7-13.5-13.3-14.4zm-100-228l-2-.5c-3.6-.7-6.8-.4-6.8 4.4 0 3 3.6 6 6.5 6 4.2-1 3.3-4 3-7l-.7-3c2.6 0 5.6 1 8-2-4-3-6-1-8 2zm-352-74c-1.4-4.8-3-9.5-8.3-11.7-3.3 3.8-3.5 7 .7 9.2 2.3 1.3 5 1.8 7.5 2.6-2 5-5 9-2 15 3-2 6-3 8-6 3-3 2-5-2-7-2 0-4 0-5-1zm332 84c-3-4.4-3.8-10-9-14.5 1 15.5 4.8 21.5 13.3 21.2l-4.3-6.6c.4 0 .7 0 1-1l-1 1zm-174-242l.3 11.8c8-3 8-3.2 7.6-9.2-1-4.4-2-8-7-8.3-2 0-4 1.2-5 2l4 3.7zm66 48c-2.4-3-4.7-3-5.6 1-1 3.7 1.7 6 4.7 7.7 4 2 7 2.7 9-.5 1-1.7 1-5 1-7-1-4-5-3.4-8-1.2zm-22-46c-1.6 1.2-3.4 2.2-4.5 3.8-2 3-2.2 6.5-7.5 7.2-4.6.6-6.5 9.2-4.3 15.5 8-7 14-15 18.4-24.3l5-3c-1-.8-2-2.5-2-2.3-1 0-2 1-4 3zm174 578c1 3 1.5 6.5 3 9.3 1 1.6 3.5 3 5.4 3.2 1.4 0 4.3-2 4.2-3-.5-4.2-1.6-8.4-3-12.4-1-2-3-5-7.4-4l-2.2 7zm-68-340c0-5.6.3-11.2-.7-16.5-.8-4-5.3-4.3-7-.5-2 4-3 8.6-4.3 13-3.5 1-4.8 3.5-4 7 1.4 8.4 3 16.8 5 25.2.5 2 3 4 5 5 1 .5 4.7-1.8 4.7-2.6 0-2.2-1.7-4.4-2.6-6.5l-6-24 8 2 3 2-1-4zm122 140c3.5 1.5 7 3.7 11.6 1.2-4.2-8-9.3-15-15.6-21.2 2.7-3.6 9.6-5 7-12.5-2 .6-3.6.6-4.3 1.4-5.6 6-11.2 12-16.3 19-2.7 3-1.4 8 3.3 9 4.5 1 9.5 1 14.3 2zm-400-282c.6 1.6 1 3.2 1.7 4.8l2-1.2c-1.4-1.2-2.5-2.4-3.7-3.6 5-1.2 10.2-1.7 15-3.7 3.5-1.5 6.5-4.8 5-9.5-1-3.7-7-6.7-11.5-6.2-5 .6-9.2 4.4-9.7 9.8-.3 3 .7 6.4 1.2 9.6zm43.8 18c-4 .6-8 1-11.7 2-3 1-6 2.3-8 4.4-1 1.4-2 4.8-2 7 1 1.3 4 2.6 6 3 3 .4 7 0 10 0 9 0 10-1.2 10-10.5v-4c5-10 0-21-9-23 0 7 0 8 8 20zm98.2 48c.5-2.4 2-5.5-2-5.8-1 0-3 2.7-3 4 .2 3.8 2.8 2.6 5 1.8-1.4 4-3.4 8-4 12-.5 3.7-.3 8 1 11.2 1 2 5 3.6 7.3 3.4 1.7 0 3.7-3.3 4.6-5.5 1-3 2-7 4-11 1-4 0-7-5-9h-8zm-112-146c-11.5-9-11.5-9-19.4 3.7-1 1.4-2.3 2.6-2.7 4-1 3.2-2 6.5-2 9.7 0 2.7 2 5 5 2.6 14-1.6 18-7 18-20v-.8l-1 .8zm260 544l9.3 3.8c-5-8-15.5-10.6-27.2-7.7v24c0 6 4 9 9 10 4 1 7 1 7-3l3-26zm-374-238c-.8 5.2-1.5 10.5-2 15-3.8-2-7-5-9.5-4.8-4.2.6-4.3 5.3-4.5 9 0 3 .3 5.8.5 8.8.2 3.6 0 7.2.7 10.7.4 2.3 1 5.4 2.8 6.6 2.8 2 6.2 1.6 9-1.2 4-4 7.8-8 11.8-11 2.3-2 4.5-5 1.7-7-6-4-5.6-10-5-17 .4-2-1-5-1.5-7l1-4c-1.5 1-3 1-4.3 2-.6 1-.5 2-.8 3zm314 254c-1-1-1.7-2.2-3-3.7-4 8.7-4 9.5 0 15.4l3-11.7c.5 10.7 4 15 12.6 16 9.8 1 14.7-2.6 17.3-12.4 1-4.8 2-9.5 4-14.3 0-2.4 1-5 1-7.5-2-.7-4-1.3-5-1.4-11-1.2-12-.4-17 9-1 2-4 3.6-6 5.2l-8 5.4zm156-246l.5.2-.5-.2c10-9.7 8.2-20.2 2.3-31-1.6-2.8-3.5-5.6-4.7-8.7-2-5.2-4.4-10.4-5.6-15.8-1-5-2.2-9.4-7.5-10.6-5.2-2-10 0-13.5 4-1.7 2-3 4-4 7-2.7 6-1.6 8 5 9 4.7 1 8.2 2 10 7 4 11 10 21 8 33 0 1 1 1 1.4 3l8.6 1zm-470 258l1-8.7h-2.7c-2.6 3-1.5 6 1.7 8.7 10 6.6 15.6 5 19.8-6 1-2.8 1.8-5.8 3.3-8.3 1-1.5 3-3.2 5-3 2 0 4 2 4 3.5 1 2.8 1 5.8 1 8.8 1 7.2 5 10.2 12 8.3 7-2 11-6.8 13-13.7 2-6.4 1-11.5-4-16.3-5-5.4-11-9-19-9.5-13-.8-26-1.4-39-1.5-7 0-10 3-10 11.2v21c0 2 1 4 2 7 2-1.8 3-2.6 4-3.7 2-3.3 3-7 5-10 1-1.5 4-3.4 5-3 2 .5 4 2.4 5 4.3 2 4 1 8-2 11zm310-488l-1-1.2c.2.4.6.8 1 1.2-7.5 5.7-4.5 16-10 24.6-8-11-19-18-20.5-31.6-1.2-11-6-20.2-14-28.4-5.3.8-9.8 3.2-13.5 7.3h5.4l-3 4c-6.3 6-7 14-4 22 1.4 3 2.2 7 2.8 11 .3 2-.2 5-3.8 5 1.4-7-2.3-16-12-26l3 37c8.7 1 17.8 2 26.8 4 6.4 1 7.3 3 6 10-1.4 9-5 17-.4 27 1.4 3-.3 9-2.6 12-3.3 4-4.5 8-4.5 13 0 2-.7 4-1 6-6 2-9.4-2-13.5-4-4.3-2-8.6-3-13 0 .4 1 .3 3 .8 3 9 7 17.5 15 27 22 0 4 0 8-.2 12l-.6 2c1 0 2 0 2.8-1 9.8-3 16.2-8 16-20 0-2 1-3 1.4-5 1.7-5 3.6-11 5-16 1.2-4 1.8-9 2.7-14h9l-4-12c4 0 6 0 8 1 4 1 7 3 9-1 2-3 4-8 2-10-4-7-3-14-6-21s-3-12-2-19c1-5 3-10 5-15 2-3 2-6-2-7zm146 410c-5.3-1-8.8-4.2-11.8-8.5-7.8-11.4-19-18.2-31.5-23.4-13.8-5-25.8-2-35.4 8-11.5 13-24.7 23-38.5 33-7.2 5-14 11-20.6 17-3.2 3-4.5 7-1.6 11 3 4 7.3 3 10.7 1 4.5-3 8.7-7 12.7-11 9.6-9 24.7-9 33.5 1 8.2 10 14.7 20 14.4 33-1 4-1 7-2 10s-3 7-4 10c3 0 7-3 11 1 2 3 5 0 6-3v-12l9-2c1 1 2 1 3 1l-1-3-6-34c7 8 14 17 21 25 5 5 11 7 18 3 6-4 12-2 19 1l-3 8-4-1 1 3c-2 6 0 10 4 14l-1 1 1-1c4 2 7 1 10-2 5-5 5-19 1-26-4-5-7-10-10-16 15 0 21 11 29 21-7 5-7 6-7 9 0 10 7 18 16 18 11 1 15-2 18-13 1-4 1-9 6-12 7 6 2 16 7 22 13 1 13 1 17-12l3-9c5 1 6 5 8 8 1 3 2 7 4 9s5 4 8 4c2 0 4-4 5-6s1-5 2-7c1-3 3-5 4-8h3l4 12c2 6 5 12 12 13 10 2 19 3 28-3l1 1-1-2c2-13 0-25-8-36 0-3-1-5-4-5H610c-6.6-1-10.2-5-12.3-11 16.5-1 16.5-1 16.7-8-14.7-1-26.3-9-38.4-16l17.8 3c17.2 3 33.8 7 47.2 20 1.2-1 3-2 3.2-3 5-24-1.7-46-20.5-60-20.6-14-36.8-13-54.3 0-5 4-9.4 7-15.8 5-.3 0-.8 1-1.6 2 .5 1 1 3 1.8 3 7.7 4 10.8 11 14 18 2.2 5 5.4 9 8.2 14zm-418-350.4l-.8-1.7h-6.4c-6 1-9-1-10-6-.3-3 .4-5 .8-8s1.4-5 1.3-8c-1-8-2-15-2-22l-3-56c0-4-1-8 2-10 4 2 4 7 4 11v16c0 2-1 7 3 7s3-4 4-7c0-4-1-8 0-12l3-29c-7-2 1-14-9-16-3 3 0 10-7 11-4-6-4-7-1-12 4-6 8-8 13-5 5 2 10 6 15 9 2-2 3-2 4-4 2-5 4-9 5-14 3-11 3-12 14-10 8 1 16 2 24 2 3 0 7-1 10-3s7-5 5-10c-1-3-5-3-8-4-2-1-3-1-4-1-34-2-67-3-100-5-17 0-18 1-18 17v141c0 26 1 53 2 80v25c1 20 1 40 2 61v6c3 0 6-1 8 0 6 1 9-1 11-7 0-2 1-5 1-7l2-38c1-20 8-37 25-49l3-3c8-8 7-14-4-18-2-1-4-1-5-2-3-2-5-3-7-6-4-7-3-11 4-14 3-2 5-5 8-7zM453 2078c0-4.4.7-8.7 0-12.6-4.2-21.2-8-42.5-13-63.5-2-8-6.7-15-10.4-22-1.3-3-4.2-5-6.6-2-1.5 1-2 4-2 7 0 1 2 3 2.3 4 1.6 4 4.2 9 4 14-.8 9 1.3 18 3.4 27 2.2 10 4 20 5.7 30 1.4 7 7 13 16.8 16zm-17-191.2c.7-32.2-6.2-59.7-26.2-84-3 4.6-2.6 8.7-.3 12.6 2.4 4 5 8 8 11.2 4.3 4.6 7 9.5 7 16 0 8 .7 16 1.8 23.8.7 5.2 2.5 10.2 4.3 15.2.5 1.5 2.5 2.5 5.4 5.2zm59 107.3c.8 4 1.4 7 2.5 11 3.4 9 11.4 14 20.7 11 3 0 6.8-3 7.4-5 .6-2-1.7-6-4-8-8.7-5-18-9-27.2-14-1.4 0-3.5-1-4.8 0-1.5 1-2.6 3-3.8 4 1.2 1 2.2 3 3.5 3 1.6 1 3.6 0 5.6 0zm48.6 27c-1 1-3.8 1-4.7 3-1 2 0 4 0 7 0 1 1 2 1 3 4 5 9 9 9 17 0 4 6 5 10 3 3-2 5-12 3-15-4-8-11-13-21-15zm-110.4-53c-.4 1-.8 1-1 2 .4 1 .8 3 1.5 4 8.4 11 22 14 36.8 10l-37.3-14zm-56.4 45l-15.3 7c-3.7 2-5 5-3.3 8 1.4 3 4.5 6 7.2 3 5.4-4 12-8 11.4-17zm102.5-22c-1.7 0-3.2-2-4-1-5.6 3-11 7-11 15 0 3-.4 6 2.8 6 2 1 6-1 7-3 3-5 4-10 6-16zm-361 215l1.7-1c-2-6-3.8-12-6.2-18-.5-1-3.4-2-4.8-2-1.5 1-3.3 3-3.6 4-.4 2-.3 5 1 7 3.5 4 8 8 12 11zm82.3-263l-23-1c2.5 3 5.3 6 7.6 9 5.5 8 8.2 8 12.7-1l2-6zm76.8 88c4.8-4 7.6-18 5.4-26-6.6 5-8.5 15-5.4 27zM606 2217c14 5 21 5.2 26 2-8-11.3-17.4-2.3-26-2zm-357.7-368c-4.6-9-6-17.2-13.3-22.4-3.2 8.4 1.8 17.6 13.3 22.5zm-44-34.4c-7.8-6-12.3-5.3-18 2 6.2 4 11.6 2.2 18-2zm155.5-33.5c-10.5-3-14.2-1-14.6 8 5.8 0 10.7-1 14.6-7zm264.6 404c-8.4-3-11-2-14 7 5.7 0 10.2-1 14-7zm-510.8 33c-10-3-.8-12-6.8-16-5 11-3.2 17 6.8 17zm511.4 10l-.7 3c3.4 3 7 5 10.7 8 2.8-5 1.7-9-1.3-10-2.2-1-5.8 0-8.7 0zm-452.8 114c1.6-4 4-7-.3-10-1 0-3 0-4 1-3 4-1 7 3 10zm-54.4-101l.5-2c-3-3-6.4-5-11 0l10.5 2zm425.8 116c-1.6 2-3.6 4-3.4 4 .5 2 2 3 3.3 4 1-1 2.5-2 2.7-3 0-1-1.4-2-2.6-4zm35.7-307l.8-3c-2-4-4-4-9 1l9 2zm-469.6 60l-2.8 3c1 1 2 3 4 4l3-2-5-3zm652.7 257l-3 2 5 10 2.4-1-4.4-9zm-483-380c-1.4 2-3 3-3 5 .3 1 2 2 3 4 1-1 2.8-2 2.8-3s-1.4-2-2.8-4zm-131-98c3-3 4.6-5 4.4-5-.6-1-2-2-3-3-1 0-3 2-3 3-.4 2 .7 3 1.6 6zm58.6-84c2-4 2-6-3-8l2 8zm-50 95c-2-1-2-2-3-2s-2 1-3 2c1 1 1 3 2 3 0 0 1.2-1 3-2zm167-96c3-6 3-6 0-10v11zm-172 120l-3 1 2 10c3-4 2.2-8 0-11zm9-34h3c-1-2-1-5-2-8-1 0-2 0-3 1l1 8zm-12 481l-2.8-1c-2.3 2-3.3 5-.8 10l3-10zm12-504h-2v5h2.3l-.7-5zm61-11c-3.3 4-3 6 1.7 8l-1.8-8zm-30 479c-2-1-3.3-2-4.7-3-.7 0-1.7 2-2.6 3 1 1 2 2 3.3 3 1 0 2-1 4-2zm373-252c-1 2-2.2 3-2 4 0 1 1.3 2 2 3 1 0 2-1 2-2 .4-1-1-2-2-4zm-453.5 84l-2-1-4 5 2 2 4-5zM354 1800c-2.2-5-4.3-4-7.4 0h7.3zm-168.5.4l2 1 1.5-4.8c-.5-.3-1-.5-1.6-.6l-2 4.4zm50.5 126l-1.3-2.3c-1.4 1-2.8 2-4.2 4l1 2 4.6-2zm-60.8 48.5c1.3-3 2-4 2.2-5 0-1-1.3-1-2-2-.7 1-1.6 2-2 3l1.7 3zm205.4-31l-1.7 2s1 1 1 2c0-1 1-2 1-2 0-1-1-2-2-3zm4.5 22l-2-2-2 2c1 0 2 1 2 1 1 0 2-1 3-2zm15-157c0 1-1 2-1 2l2 2 2-2s0-2-1-3zm-150 169c0-2-1-3-1-3l-3 1 1 2 4-1zm389 349c-1-1-1-2-2-2 0 0-1 1-2 1 1 0 1 1 2 1s2-1 3-1zm-26-87l-2 1 2 2c1 0 2-1 3-1l-1-3zm-9 109l-1-2-2 1c1 0 1 1 1 1 1 0 1-1 2-1zm-438-425c1-1 1-1 1-2s0-1-1-2l-1 1 1 1zm320 76l-1 1h1c1 0 1 0 2-1l-1-2zm-133-11c0-1-1-1-1-1s-1 0-1 1c1 0 1 1 2 1s1-1 2-1zm187 387v-2h-2v2l2-1zm49-312l1-2-1-1-1 2h1zm-353-271l-1-2-2 1 1 2 2-2zm126 79l-1-1h-1v1h2zm210 166l-2-1 1 1zm-207-76v-1h-2v1h2zm46-111l-1-1v1h1v-1zm205 373v-1h-1v1l1-1zm-40-123v-2h-2v2l1-1zm-315-291c0-1-1-1-1-1s-1 0-1 1l1 1 1-2zm173 543v-1h-1l2 1v-1zm-279-413l1 1 1-1-1-1zm165-160v-1l-1 1h1zm-104 131l-1 1 1 1 1-2zm218 434v1h1v-2h-1zm-216-32l1 1 1-1-1-1zm85-503c1 0 1-1 1-1l-1-2v1zm109 24h1v-1 1zm-70 147h1l1-1zm-174-11l1 1s1 0 1-1v-1zm433 146l1-1h-1v1zm-245 247v1h1v-1zm27-432h1v-1zm-89-109h1l-1-1zm-147 120l1-1zm97-83l1-1v-1zm164-32l-1-1v1l1-1z"/>
        <path d="M237.7 2347.8c3-4.6 5-7 9.2-4.7-2 5-5 4-10 5zm10.8-32.8c-1 .5-2 1.4-2.6 1.2-1 0-2-1.5-2-2 0-.7 1-1.5 2-1.5l2 2.2zm16.3 26.5c-.6 0-1 .2-1.7.3 0-.3 0-.8 1-1l2-.2v1zM200 2364v-2l4-4c2.5 4.5-1.7 4.6-4 6zm34-50zm-88 12zm110 0zm-28 24zm-30 14h2-2zm386-32l-6-4 6 4zm-58-6c-.2-.5-.3-1-.3-.7 0-.2 0 .3.3.7zm-16 38c.3.4.5.8.8 1-.3-.2-.5-.6-.8-1zm0 0l-2-4 2 4zm100-28h2-2zm136 6zm-182 0zm22-8l-2-2 2 2zm-54 26l-2 2 2-2zm48 4l1.6-1.6-1.5 1.5zm-2-36zm-14 14zm-352-388c2.6-1.3 5-3 7.8-3.8 1.2-.3 3 1.6 4.4 2.5-1 1.4-2.3 4-3.3 4-3-.4-6-1.7-9-2.7zm9.6 23.3l5.8 3.5c-.7 1-1.2 2.7-2 3-3.3.6-5-1.2-5.5-4 0-1 1-1.7 1-2.5zM160 2012l2-4h6l-8 4zm8-4l2-4-2 4zm-14 12zm4-8h2-2zm56-66zm-2-8l2-2-2 2zm2-2zm172 76l6-6-6 6zm10-10l-4 4 4-4zm-8.2 23.8l-1.6-1.6 1.6 1.6zm8.2-23.8zm-246 54l2-2-2 2zm10-8l2-2-2 2zm150-262zm-8 14zm-181.8 312h3.8-3.8zM494 2350zm-278-524zm138 126zm-106-48l2 2-2-2zm352 244l2 16c-8-4.4-4-10.3-2-16zm4 18c2 .7 2 1.3 0 2v-2zm-2-2l2 2-2-2zm-132-140l2 4-2-4zm8 28zm3.8-23.8l-1.8 1.8 1.8-1.8zM376 1790l2 2-2-2zm22 46zm-66-48z"/>
      </g>
      <g id="guide">
        <path d="M879.2 1181.6l-133 2.4-84.8 2-91 2c-29 .6-58 1.2-86.8 2-59 1.2-118 2.6-177 4-29.2.6-58.5 1.2-87.8 2-29.3.6-58.6 1.2-88 2-6.6 0-13.2 1-19.8 1-10 .4-11.8-1.4-12.2-11V697c0-3-.2-6 0-9 .6-7.6 2.5-9.5 10-9.2 12.5.5 25.2 1.2 37.8 2 17 1 34 2.2 51 3 31.2 1.7 62.5 3 93.7 4.7 43.2 2.3 86.5 5 129.7 7.3 30.6 1.7 61.2 3 91.8 4.6l94.8 5.3 83.8 4.4 104.8 6 84.8 4 102.8 6 44 3c44 2 88.4 4 132.7 7l111.8 6 152.7 8 110.8 6 112.8 6c10.7 1 12.7 3 13 13 .2 3 .2 6 .2 9v370c-.6 9-2.3 11-11 11-17 1-34 2-51 2l-148.8 3-88 2-87.8 2-88 2-87.8 2-177 4c-14.2 1-28.5 2-42.8 2h-.4zM424 1132zm6 10l-.5-.2.5.2 1 1-1-1zm-48-230zm36 232l4-4.7c-1.7-1.4-3-3.4-5-4-2-.5-4.5.4-6.8.6 4.8-5 9-11 17-11 1.4 0 3-2 4-4 2-3 3.3-5 5-8 6.3 2 5-7 9.4-6 7.8 0 15.7 0 23.4-1 5.4-1 8-4 7.5-10-7.4-5-17 1-24-6 .8-2 1.3-4 2-4 6.3-1 10.5-5 15-8 1.4-1 3.7-2 5.6-2 8 0 15 0 21 5 3 0 5 0 7 1 11 2 12 0 9-11 2-1 3-1 4-2 0 0 0-1-1-1l-3 3c-7-7-16-8-26-5-8 2-14-3-15-11 0-3 0-6-1-9s-4-5-5-7l17-19 3-2 31-12c13-4 27-4 39-11 1-1 1-1 2-1l36-3c1 0 1 1 1 1-3 3-8 1-11 7 11 1 17-4 25-9l7 2c3 2 7 3 9 0 3-5 6-4 10-4l-2 4c1 0 1 0 2 1l1-5c-1-6-5-10-11-10-15 0-29 1-44 3-6 1-13 3-19 4-12 3-25 5-38 8-8 2-17 5-26 6-8 2-16 0-23-7s-10-7-19 0c-9-1-18-2-25-10 4-7-1-11-5-16s-5-10-5-16c1-7-1-14-6-20-8 11-19 17-30 23-3 1-7 2-10 2-5-1-10-3-14-4-4-2-8-4-8-10 12 3 14 3 20-4-4-6-9-7-15-6s-10-1-13-6-7-9-10-13c-1-2-4-3-6-4v7c6 9 12 18 16 27 5 10 12 16 23 19l36 6c9 1 12 4 14 16-6 2-12 6-19 7-12 3-25 5-38 8-2 0-5 0-7-1-6-4-10-1-15 3-10 10-23 16-37 21l-3-14c-1-3-5-5-9-4l-2 6-5-2v-2s0 1 1 2c-10-2-21-4-31-5-4 0-7-2-10 2 1 5 5 6 9 7 5 1 11 1 17 2 9 1 17 4 21 13-1 1-2 2-3 2-8 4-16 7-24 11-8 5-16 10-25 16-4 3-8 5-13 2-3-2-7-1-9 2l-7-3c-4-2-7-2-10 1-14 12-28 23-40 38s-16 32-9 50l9 26c4 12 5 13 18 13 27-1 54-2 81-2 10 0 20-2 28-8 10-8 22-10 30-20h2v9c13-8 26-4 39-2l14 3c11 3 21 4 32 2l7-2c-8-6-19-7-19-19l13-7c6 1 6 1 5-7l-5 6-2-6 18-12 2 6-1.6 3c-1 2.4-6 5-2 8 4 3.2 6.4 0 9-2v-1l4 6c1 0 2-1 2-1l-4-5zm156-386c-1.4-3-3-6-4.2-9-3-6.6-6-13.3-9.2-20-1.5-3-3.3-6.4-8-4.7 3 9 5.5 17.4 9 25.6 2 4 5 9 8.2 13 1 1 3.5 2 7.4 4l-3.2-9zM430 974c0 1.3 0 2.7.2 4 1.6 7.8 4.3 9.4 11.7 7l10-4c5-2.6 6-6.3 2-10.5-7-7.3-15-9.6-26-11l2 14.5zm-184-8c-.3-6.7.6-7.7 5.5-5.7 3.4 1.4 6.6 3.2 10 4 1.8.4 4-1 7-1.7l-10-14.3 11.6-4.8c-5-4.2-9-2.3-13 .6-11 9-19 21-28 32-1 2-2 5-3 8-4 12 0 25-6 36 0 1 2 4 3 5 1-1 4-3 4-5 0-4 2-8 4-12 2-2 4-5 4-8 3-12 6-23 14-33h1v1zm18-168c10.4-1.4 11.4-9.4 12.8-17.5 2.4-13.5 4.6-27 8-40.4 2.4-8 7-17 10.2-25 2-5 5.6-11 4-18-5.6 0-9.2 1-10.4 7-.6 3-1 6-2.6 9-9.6 14-11.4 31-15.2 46-3.2 13-4 26-14 37-3 3-1.3 7 2.4 8 2 1 4.5 1 6.8 1-.4 8 .3 16 7.4 21 1 1 1.7 2 2.4 3 2.8 5 2.6 11 7.6 15 3.7 3 4.8 10 7 15l-2.4 1c1 6 3.6 11 8.4 14 2.2 2 4 5 4.8 8 3.2 10 6 20 9 30 .6 3 1.7 5 2.6 7h1.2v-10h5.4c12.4 2 24.8 4 37.2-1 2.4-1 6.5 0 9 2 5 3 9.5 3 14 1 6.5-3 12.8-7 18.7-11 8.8-7 17.4-13 29-14 4.2 0 9.7-1 12-4 4.3-6 11-8 16.3-12 3.2-3 7.6-4 11.7-5 13.5-3 26.2 3 39.3 4 7.7 0 13 5 17.8 10 3.7 4 6.7 9 10.3 14-1.5 0-2.7 1-4 1-6.8 0-10.5 6-14.6 10-1 2 0 6-1 10 0 2-1 4-2 6-12 15-25 26-45 23-10-1-13 1-18 10l-3 10h1c8 1 16 4 23 8 8 5 16 2 23 0 3-1 4-5 9-6 12-1 17-12 26-19 2-1 1-5 2-7l21-6v-4c8 0 4-7 6-11 6 1 12 2 16 6 3 3 6 3 9 1 6-4 12-8 17-13 4-3 5-7 4-11-1-5-5-4-9-5-8-1-14-4-17-13-2-5-6-9-9-14-4-5-9-8-16-5-5 2-8 0-11-4l-6-10c-2-2-4-5-6-7-7-4-14-8-23-8-6 1-9-3-11-8-1-4-2-9-1-13 1-9-3-18-7-26-4-9-14-10-21-2-1 2-3 3-4 4-13 4-16 15-18 26 0 4 0 8 1 12 3 7 7 14 10 22-6 5-14 8-22 10-6 1-10 0-13-5-4-5-9-9-17-7-9 3-18 2.4-27 1.4-10-2-16 2-20 11-10 3-19-2-27-7-8-4-16-9.3-25-1-5-9-5-12 4-19l3 1-2-1c-3-3.2-6-2-10-1-4 2-7 0-9-3s-4-6-5-9c-1-6-5-9.5-11-10 0-1-1-2-1-3.5zm225 367.6c9.5 4.3 18.3 7.8 26.8 12 10.7 5.4 20.6 7 27 3.3l-22-12-18-9c-5-2-9.3-2-13.8 5zM590.8 833l-11.3-17.3 10.2-6.7c-5-4.2-10.2-5.4-15.5-5.6-4.4-.2-7.3 3.4-5.8 7 2.5 6.2 5.2 12.3 9 17.8 2.4 3.6 6 8 13.4 4.7zm-80.3 295.3c1.5 0 3.2.5 4 0 2.4-1.6 5.3-3.3 6.2-5.6 1.2-3.3-1.5-5.8-4.7-6.3-3.8-.6-8-1-11.6-.2-2.3.6-5 3.7-5.6 6-.7 3.7 3 4.5 6 5.2 2 .5 4 .7 5.7 1zM330.2 952.7l-17-3.5c-6-1.3-12.2-3-18.4-4-5.4-1-10.8-3.8-18-1.6 9.6 5 45.3 11.8 53.4 9zm120.6 186.5c14.4 2.7 14.4 2.7 18.5-1-7-6.3-8.7-6.3-18.5 1zm63-117c12.2-1.8 14.2-3 17-10.5-6.8 1-12.5 3.3-17 10.6zM591.5 784c-1.8-10.7-4.4-12.8-13.3-11.2 2.8 5.7 7.4 8.7 13.3 11.2zm9.6 5.7l-1 3.3c5 3 9 5.7 15 1l-14-4.3zm-253 52.5l1-2c-2-2.2-5-4.6-8-6.3-1-1-3-1-5-1 1 2 1 5 3 5l11 3zm63 88.7c-8-5-8-5-12 0h13zm-111 33c-4 2-6 5-2 9 4-4 4-4 3-9zm48 30c-3-6-6-6-9-2 2 1 3 2 4 2 2 0 3-1 6-1zm255-119c-2-2-3-3-5-3-1 0-1 2-2 3 1 0 2 2 3 2 2 0 3-2 5-3zm-52-166l-2 1c-1 3 1 5 5 6l-2-7zm-142 465v2l6 1c0-1 1-1 1-2l-6-2zm-148-169l-1 1s1 1 2 1c0 0 1-1 1-2-1 0-1-1-2-1zm217 172l-2-3s-1 1-1 2l1 2 3-1zm-20-9l-1 1c1 1 1 2 2 2s1-1 2-1l-2-2zm41-145l2-1s0-1-1-1-1 1-1 1l1 1zm-83-188l1-2-1-1v1l2 1zm-53 159v-1h-1v1l2-1zm16-13l2-1v-1h-2l1 1zm186-65v-2 1h1zm8 86l2 1 1-1v-2l-1 1zm-283-34l-1-1v1c1 0 1-1 2-1zm157 201l1-1zm-74-216c0-1 0-1-1-1v1c1 0 1 0 1-1v-1zm188 47h1zm-350 54l1-1zm191-150v-1h-1v1-1zm152 101l1-1v-1 1zm-113 140h1v-1z"/>
        <path d="M454.2 1049.2v.8c-.5 0-1-.3-1.3-.4v-.6l1 .2zM612 996l1-2.5c.2 0 .3.2.5.3L612 996zm-406 70zm244-68zm-42 132zm28-16zm-62.7-260c1 2 1.7 4.3 3.2 8-6-1.5-6.6-4-5.7-7.2l2.5-1zm-10-7.7c1.3 0 3 0 4.2.2v1.4l-4.4-1 1-2zm101.3-24.8c0-.6 0-1 .2-1h.6l-.8 1zM528 930zM264 798l-.2-.4.2.4zm166 176zm144-216zm-156 386h-2 2z"/>
      </g>
    </g>
    <g id="u">
      <path d="M880.3 98H1639c4.8 0 9.4 0 14 .4 5.2.3 8 3 8.2 8.3l.2 9v585c0 17.6-2.2 16.5-16.8 15.6-31-2-62-3-92.8-4.7-43.2-2.3-86.5-5-129.7-7.3l-44-2.3-132-6.6-149-8-152-8-149-8-150-8-151-8-151-8-149-8-76-4c-2 0-5-.3-7-.7-7-1.4-9-3.4-9-10.7V107c1-6.2 3-8 9-8.6 5-.4 9-.3 14-.3h759zM1310 372zm-16 48l1.2-2.3-1.2 2.3-1 1.2 1-1.2zm-8-152l-4 8c-2 2.6-4.3 5-6.2 7.8-13.4 19.2-27.8 37.4-49.8 47.7-.5.2-.8 1-1.2 1.5.4 0 .8 0 1.2.2l-2 12.8c-8.4-8.2-11.4-17.2-6.3-28.6 3-7 0-13-7-16-2.2-1-4.6-1-6.8-1.4l3-5.2c-8 1.2-10 6.3-11 11.2-2 3.3-4 6.5-5 10-2 5-3 10.4-5 15-4 6.5-4 13-2 19.5 3 12 7 24.4 12 36 9 20.6 19 40.8 28 61.4 6 13 12 27 19 41 7 15 13 30 20 44 10 18 23 34 41 47 7 5 14 6 22 1l-1-1c-2-11-3-21-6-32-4-17-9-34-8-51 0-7-2-13-6-18-2-3-3-5-5-8 2-2 4-3 6-4l24-6c15-4 32-4 44-16 1-2 3-1 6-2-9-5-17-9-25-7-17 3-33-4-49-2-2 0-3-2-5-3 4-1 6-1 9 0 8 2 13-2 17-8 3-5 2-8-3-14-4-5-7-6-11-2-4 2-7 6-10 9-5 5-11 9-19 10-11 1-22 2-33 2-9 0-17-3-21-12-4-10-9-20-13-30-1-3-2-6-1-9 0-2 2-4 4-5 1 0 4 2 5 3 1 4 1 7 2 11l-2-5c-3 10 4 24 12 27l-2-7c12 9 25 5 37 1 7-2 14-13 11-20-3-9 1-15 7-21 7-7 11-15 12-25 1-15 3-30 4-45 1-13 1-26 6-38 2-6 1-13-3-19-3-3-3-6-2-10 3-8 1-10-7-12l-6-1-2-4 3-5-3-1v5l-12-4c-10-9-20-2-32 0l8 9c5-11 15-9 23-10l-9 3c-2 1-5 3-5 5 1 2 2 5 4 6s5 2 8 3c10 4 13 12 9 22-1 3-3 7-4 11-1 8-5 15-11 20v-6l3-9zm-80-28c3-1.8 6.5-3.3 9.2-5.7 1.3-1.2 2-4 1.7-6-1-1-4-3-5-2.5-4 1-7 2-9 4.6-3 3.5 1 6.6 3 9.6l-12 11c11-.7 5 6.2 8 9.8 6-6.5 8-13 3-20.8zm246 66c8.3 5.4 11-3 17.3-6.6-11.2-1.5-19 1-25.4 8.2-4 4-4 5.8 1 10.2l7-11.8zm104 178c3.5 1.4 7.7 2.8 10-.5 2.2-3.2 2.6-7.6 4-11.8l6.4-3c-11-2.8-16.5 2-21.5 8-3 3-5 6.2-7 9.4-6-2-10 0-15 2-7 5-12 10-16 18-11 24-18 49-24 74-2 6-2 13-2 19 0 11-2 20-8 28-6 9-7 26-1 36v-19c6 0 9 2 10 7 1 6 5 7 9 5 5-2 10-6 15-9 4-3 1-7 1-11-1-3 2-7-1-9-3-1-7-1-10-2s-7-2-7-5c-3-7-6-14-5-22 5-1 9-4 13-4 11 0 15-6 17-15 5-2 5-4 1-7-5-3-10-3-15 1 0-3-2-7-1-10 4-12 6-25 16-35 7-7 9-16 5-26 1-1 3-1 3-2 1-6 5-9 10-10 4 4 5 4 8-2zm-412 46c-.3 2.7-3 5.4 0 8.2 4.4-4 4.4-4 0-8.2-10-14.6-23-15.6-34-2l25.6 5.7.6-3.8h7.8zm6-256c.2 5.8-9.2 7.6-6.3 14h14c1-5.3 2.5-10.6 3-16 1.3-9.5 2.2-19 3-28.5 0-1-1-2.2-1.7-4-1 1.6-1.8 2.3-2 3-1.7 9.6-3.3 19-10 26.8-.6 1 0 3 0 4.7zm-44 288l.3.5-.3-.5c-2.6-1.2-5.5-3.5-8-3.2-11.2 1.5-22 4.3-30.6 12.3-.3 1 0 2 0 3 3 4 7 2 10.8 1 3 0 7 0 9.2 1 6.3 5 10.5 1 15.4-3l-8.4-2c3.4-4 6-8 11.6-8zm228 31.8c-2-1.6-4.6-4-6.3-.7-1.6 4 1.5 4 3.8 4-1.7 9 .4 18 5.7 25 7 9 8 20 10.5 30 4 17 11.3 24 28.3 26l57.7 5c2.2 1 4.5 0 6.8 0l.2-2-9.2-3c-11.2-1-22.6-3-33.7-3-11.6 1-14.6-10-22.5-14-.4 0-.8-1-.6-2 3.2-7-.7-12-5.2-18-1-1-1.4-3-1.3-4 .4-4-2.2-7-5.6-9-6-4-5.7-6 1-10l2.5-1c5-3 5-5 1-9l-9-6 1-2 13-1v-3c-3 0-7-2-10-2-8 1-17 3-26 5zM1526 468c4.8-2 9.6-4.3 14.5-6.2 7.4-3 14.8-5.6 22.3-8.3.8-.3 2.6-.2 2.7 0 2 5 4.8 1.6 7.3 1 2-.3 4-1 5.8-1.2 11.5-1.3 20.6-6 27.2-16.2 4.4-6 10.5-12 16.4-19-4.3 0-8.8-1-13.3-1-14 0-28 1-41 1-8 0-16 2-22 7-8 7-16 14-24 22-7 7-7 14 0 23h2zM972 596c-5-12.3-3.5-18.8 6-24.8l58-35.6c7.2 4.7 13.5-1 19-4.6 5.8-3.8 12.7-8.6 10.3-18 19.8 12.5 38.8 11.5 46-2.7-1.6-.5-3.3-1.7-4.5-1.3-8 2.8-15.7.3-23.6 0-12.6-.8-26-2.3-37 4.5-13.6 8.3-25.6 19-38.3 28.6l-22 14-2 2-14 10-2 2c-7 3-10 9-12 16-2 8-3 15-4 23-1 6-3 13-3 19-1 4 0 8 1 11 2 5 5 9 8 14 1 2 3 2 5 4 1-3 3-5 4-7 2-8 1-18 13-21 5-8 11-16 17-24 1-2 2-6 1-7-2-2-5-3-8-2-4 0-8 2-12 3l-3 6-6-4zm408-222c4.2-9.8 5.2-19.7 2-30 4-.3 6-2 5-6.4-1.3-7.3-6-10.6-16-10 3 6.8 4.8 13.6 1 20.4-3.3-2.6-4-9.6-10.4-7.2-4.8 2-8.2-.4-12-2.4-6.6-3.3-13.2-6.5-20-8.7-7.5-2.3-10.5.5-11.3 8.2-.7 6-1.7 13-2.4 20-1 2 0 5 0 7 3-2 3-8 10-8-4 7-7 13-11 19 2 4 5 3 8 2l11-6c4-2 9-5 14-7s11-4 16 0v2l-3 6c-6 9-4 15 5 20 3 2 8 4 12 4 13-1 26-1 38-4 9-2 16-10 19-20-4-1-6-2-8-2-9-2-19-2-28-4-8-2-15-1-23 2zm-2 136c-6.6-1.5-8 3-9 7.8-1.6 5.7-3.3 11.4-4.6 17.2-1 3.8-1.8 7.8-1.8 11.7 0 1.8 2 3.6 3.7 6.7l10.5-15.5v7c0 2-.5 4-.3 6 .5 6 3.6 9 9 8 8.6-2 17.4-5 25.2-9 12.7-7 17.5-21 23-33 .4-1 0-2-.5-4l-19.2 7c.7-4 .8-6 1.6-8 5-10 9.7-20 15-30 14-25 25.5-50 34.6-76 1.2-4 3.2-8-.6-12-7.5 1-11.2 7-15 12-5.2 7-11.4 11-19.6 13-5.5 1-11 2-16.7 2l-60.8 4c-2.7 0-6.2 0-7.6 4 22 2 45-1 69 0-7 4-13 6-16 10-6 6-13 10-21 13-4 1-7 3-11 5 7 12 15 23 6 36-4 1-8-4-12 1l8 5 8 6zm-236-212.3c-5.8-2.2-11.4-4-17.4-2-10.4 3.6-21 7-31.2 10.8-2.7 1-5.3 2.8-7.5 4.8-6 5-11 10-16 15.5-2 2-4 5-5 7.7-6 22.3-8 44.5 1 66.7 5 13.3 9 27 14 40.6 5 17.7 11 35.5 17 53.3 0 3 1 5 2 7 0 1 2 2 3 2s3-2 3-3c0-2 0-4-1-6-1-4-3-7-4-11l-30-90c-3-7-4-15-5-23-2-19 3-35 17-48 4-4 8-7 14-9l37-8c2 0 5 0 5-6zm260 39l-.8 2.6c1.6 1 3 2.3 4.8 2.8 15.6 5 31.2 9 46.8 13 3.4 1 7.3 1 10.8 1 2.2 0 4.2-2 7-3-7-8-15-12-24.8-13-11.2 0-22.4-1-33.6-1H1402zm100.6-61c-3 4-1.8 7-.3 9.4 4.5 8 8.7 16 14 22 11 14 22.5 27 33.8 40 2 2 4 3 8 6-1-4-1-6-2-8-6-13-16-24-26-34-8-8-15-16-20-26-1-2-3-3-5-6zm73.5 138.5c1-4.2 1-6 1-8-1-6.7-3-13.5-5-20.2-2-8.6-5-17-8-25.5 0-1.4-3-1.7-5-2.5 0 1.8-2 4-1 5.2 6 10 6 21.2 8 31.8 2 6.7 4 13 12 19.2zm-376-193v-2.8c-9 0-18 3.8-26 9-4 2.6-3 9.8 0 13.3 4 3.4 9 3.7 13-.4 3-2.4 4-6 5-9 1-1.8 1-4 1-5.6l9-4.6zm155 453.5c-12-8-52-10.3-64-3.7l64 3.7zM1256 185v-3c-1-.6-2.3-1.5-3.4-1.4-4 .6-8.4 1-12.6 2-5 1-8.3 0-9.4-5.6-.6-2-2-4-3-6.2l-2 .6-2.6 22.6 33-9.4zm305 320c0-4.8-3.2-8.7-7.5-9-4 0-7.2 3-7.3 7.6 0 5 3.5 11.8 7 12 3.2.5 8-5.5 8-10.7zm-235.5-263l12-27c-10.5 5-14.5 14-12 27zM1119 622.4c-7.5-3.7-11.7-2.8-17 3.8 7.7 2.8 10.5 2.2 17-3.8zm94.5-345c1.5 9.4 7.8 12 19 9l-19-9zm120-86.4c7 9 12 10 21.4 6.3-7-4.3-13-5-22-6.2zm-79.3 25.8c-5.6-8-11.4-9-17-2.7 5.6 2 10.8 5 17 3zm-64.2-20l-12.4 8c10.4 3 12.6 2 12.4-8zm-27 29c6.3-.3 9.3-3.2 11.7-6.5.7-1-.3-3.4-.6-5-1 .2-3 0-4 1-2 2.7-4 6-7 10.5zm-32.7 271c-7.4.5-12 1.5-14.8 9.2 6.4-1 11-2 14.8-9zm175-121.4c-2 2-3.5 3.2-5 4.6 1.5 1 3 3 4.2 3 1.8-.2 3.3-2 5-3l-4.3-4.6zm-300 290.5c1.8-2 3-4 3.8-6 0-1-2-3-2-2-2 1-3 2-5 3l4 4zm278.4-434c1 6 2 9 7.4 12 0-6-1-10-7-12zm96-33l-1 2c1.6 4 4.4 4 10 1l-9-4zm-154.5 101l.6-2c-5.4-3-5.4-3-10.8 0l10.3 1zm102.2-18l3.4-1-1-6h-3.4l1 6zm-33.2 119c6.8-2 6.8-2 6.7-9l-7 8zm25.8-183l.7-4-7.2-1-.6 2c2 1 4 1 7 2zm-151.6 41l-1.6-1-1 4h2.3c1-1 1-2 1-4zm11.7-3c-1-1-2-2-3-1 0 0-1 1-1 2 1 0 1 1 2 0 1 0 2-1 3-2zm20 15l1-1-2-1v1s1 0 2 1zm336 313v-1c0-1-1 0-1 0l1 2 2-1zm-203-83l2 1c1-1 1-1 1-2s-1-1-1-2l-1 1zm-38-300l2-1-1-2h-1l1 1zm-128 7l-1-2-1 1 1 1 2-1zm86-6l2 1 1-1c0-1-1-2-2-2l-1 1zm335 258c0-1 0-2-1-2h-1c1 0 1 1 1 1 1 0 1 0 2-1zm-159-239c1 0 1 1 2 1s1-1 1-2-1-1-1-1l-1 1zm-151-36l-1-1h1l2-1zm12 70l-1-1v3l1 1 1-3zm-74 12l-1-1s0 1 1 1l1-2zm-17-72h1l1-1h-1zm337 371h1v-1zm60-101v-1h1zm-23 26h1-1v1zm-194 114l1 1h1-1zm-218-308v1l1 1s1 0 1-1zm186-92l1 1zm201 323h1l-1-1c0 1-1 1-1 1l1 1zm-395-232l1 1zm86 104l-4-6 4 6zm2 6l-2-6 2 6zm2 4l-2-4 2 4zm62-190h1zm-108 86h2-2zm28 40zm-26-40l2-2-2 2zm2-2l2-2-2 2zm2-2l2-2-2 2zm74-12zm2-2l-2 2 2-2zm0 0zm4-6z"/>
      <path d="M1417.8 443.4l-10.3 3.4c4.3-4.3 4.2-4.4 10.3-3.4zM1380 524l-2-14c3.2 0 5 1.4 4.5 4.7-.6 3-1.7 6.2-2.5 9.3zm0 0c0 .5-.3 1-.2.8l.2-.8zm-18.2-176l.7-.3c0 .4 0 .8.2 1.3h-.8c-1-.3-1-.6-1-1zm10.2 0l.8.5c-.3 0-.5-.3-.8-.5zm10-4zm-2 30zM984 558l2-2h4l-6 2zm-12 38c-.8.2-1.7.4-.2 0-1.5.2-.6 0 .2 0zm-4-26h2l-4 4 2-4zm2 0v-2h4l-4 2zm38-28l.5 1.4c0 .2-.3.4-.5.6v-2zm-32 60zm2-2l-2 2 2-2zm-12-26zm8-6l2-2-2 2zm2-2zm14-10zm18-12zm484 80c-.4.8-1 1.6-1.3 2.4l-.4-.3 1.7-2zm42-126l-1.4-2.2.4-.2 1 2.4zm-20 72l-.2.4.2-.4zm12 2l2 4-2-4zm-34 52l.2-.4-.2.4zm34-52zm0-104h-2 2zm-193.4 127.4l1-1-1 1zM1150 274l.4-.2-.4.2zm406 210zm-104-178l2-1.6-2 1.6z"/>
    </g>
  </g>
</svg>
